# xmcd CD database file
#
# Track frame offsets:
#	150
#	24526
#	50558
#	70059
#	100950
#
# Disc length: 1832 seconds
#
# Revision: 0
# Processed by: cddbd v1.5.1PL0 Copyright (c) Steve Scherf et al.
# Submitted via: CDex 1.51
#
DISCID=3d072605
DTITLE=Ron Blake - Sonic Tonic (Bonus CD)
DYEAR=2005
DGENRE=Jazz
TTITLE0=Dance of passion (Remix)
TTITLE1=Tom Blake (Remix)
TTITLE2=Sonic Tonic (Remix)
TTITLE3=Tom Blake (Remix 2)
TTITLE4=Dance of passion (Remix 2)
EXTD=YEAR: 2005
EXTT0=
EXTT1=
EXTT2=
EXTT3=
EXTT4=
PLAYORDER=
